<svg id="Capa_1" data-name="Capa 1" xmlns="http://www.w3.org/2000/svg" xmlns:xlink="http://www.w3.org/1999/xlink" viewBox="0 0 293.14956 167.92015"><defs><style>.cls-1{fill:none;}.cls-2{clip-path:url(#clip-path);}.cls-3{fill:#a7007d;}.cls-4{fill:#b10076;}.cls-5{fill:#b9006b;}.cls-6{fill:#bf015a;}.cls-7{fill:#c30b44;}.cls-8{fill:#c61c2c;}.cls-9{fill:#c93320;}.cls-10{fill:#cd471c;}.cls-11{fill:#76117f;}.cls-12{fill:#8a097d;}.cls-13{fill:#990678;}.cls-14{fill:#a7006f;}.cls-15{fill:#b6005d;}.cls-16{fill:#c31042;}.cls-17{fill:#cd2e21;}.cls-18{fill:#d3501a;}.cls-19{fill:#d7671c;}.cls-20{fill:#d7631c;}.cls-21{fill:#58167f;}.cls-22{fill:#70107e;}.cls-23{fill:#800c7c;}.cls-24{fill:#900976;}.cls-25{fill:#a50966;}.cls-26{fill:#bd1544;}.cls-27{fill:#cf461e;}.cls-28{fill:#da6f1d;}.cls-29{fill:#df8321;}.cls-30{fill:#dd7a1f;}.cls-31{fill:#421a80;}.cls-32{fill:#58147f;}.cls-33{fill:#671180;}.cls-34{fill:#761180;}.cls-35{fill:#8b1171;}.cls-36{fill:#a91e4b;}.cls-37{fill:#d3611f;}.cls-38{fill:#e08d22;}.cls-39{fill:#e49f26;}.cls-40{fill:#e29224;}.cls-41{fill:#341e80;}.cls-42{fill:#431a80;}.cls-43{fill:#481c86;}.cls-44{fill:#4f258c;}.cls-45{fill:#5e2f81;}.cls-46{fill:#80475b;}.cls-47{fill:#cc8c27;}.cls-48{fill:#dcad2b;}.cls-49{fill:#e1bb2d;}.cls-50{fill:#e3b12b;}.cls-51{fill:#2d2381;}.cls-52{fill:#322282;}.cls-53{fill:#2e2d8f;}.cls-54{fill:#32479d;}.cls-55{fill:#416195;}.cls-56{fill:#63846f;}.cls-57{fill:#78b33d;}.cls-58{fill:#d0cd33;}.cls-59{fill:#d7d434;}.cls-60{fill:#e3d333;}.cls-61{fill:#282a84;}.cls-62{fill:#272b86;}.cls-63{fill:#283e99;}.cls-64{fill:#3862ab;}.cls-65{fill:#c2de41;}.cls-66{fill:#4a81a6;}.cls-67{fill:#66a97f;}.cls-68{fill:#7dbb43;}.cls-69{fill:#8ec73c;}.cls-70{fill:#a6d83c;}.cls-71{fill:#b7d93a;}.cls-72{fill:#26348c;}.cls-73{fill:#26398f;}.cls-74{fill:#2e4ea3;}.cls-75{fill:#4172b6;}.cls-76{fill:#4d88b1;}.cls-77{fill:#66ac88;}.cls-78{fill:#a2d53b;}.cls-79{fill:#b5dd3a;}.cls-80{fill:#afda3a;}.cls-81{fill:#273e93;}.cls-82{fill:#2b499a;}.cls-83{fill:#365fae;}.cls-84{fill:#477dbe;}.cls-85{fill:#518eba;}.cls-86{fill:#62a78c;}.cls-87{fill:#92cd3f;}.cls-88{fill:#355ca9;}.cls-89{fill:#3e6eb9;}.cls-90{fill:#4a82c4;}.cls-91{fill:#5290bd;}.cls-92{fill:#5ea28e;}.cls-93{fill:#c4de38;}.cls-94{clip-path:url(#clip-path-2);}.cls-95{clip-path:url(#clip-path-3);}</style><clipPath id="clip-path" transform="translate(12.25633 21.8772)"><path class="cls-1" d="M113.76505,61.4758a32.31526,32.31526,0,0,1-2.60248,12.89008,32.99393,32.99393,0,0,1-7.11589,10.53183,33.81328,33.81328,0,0,1-10.57236,7.075A32.526,32.526,0,0,1,80.50289,94.5754a33.26749,33.26749,0,0,1-11.87338-2.1553,32.76974,32.76974,0,0,1-10.32842-6.30258A31.94311,31.94311,0,0,1,48.09486,92.4201a33.1748,33.1748,0,0,1-11.91421,2.1553,32.2277,32.2277,0,0,1-12.9306-2.60264,33.922,33.922,0,0,1-10.53168-7.075,32.97482,32.97482,0,0,1-7.116-10.53183A32.29692,32.29692,0,0,1,3,61.4758V6.01215H25.2018V61.4758a10.72227,10.72227,0,0,0,.85383,4.26978,11.04881,11.04881,0,0,0,5.85555,5.85525,10.72044,10.72044,0,0,0,4.26947.85413,11.02355,11.02355,0,0,0,4.31031-.85413,11.41388,11.41388,0,0,0,3.57836-2.35825,10.71217,10.71217,0,0,0,3.25291-7.76678V6.01215H69.44267V61.4758a10.28886,10.28886,0,0,0,.89466,4.26978,11.60485,11.60485,0,0,0,2.39909,3.497,11.02456,11.02456,0,0,0,3.497,2.35825,10.72049,10.72049,0,0,0,4.26948.85413,11.08933,11.08933,0,0,0,7.848-3.21238,11.65157,11.65157,0,0,0,2.39908-3.497,10.30787,10.30787,0,0,0,.89451-4.26978V6.01215h22.12059Z"/></clipPath><clipPath id="clip-path-2" transform="translate(12.25633 21.8772)"><path class="cls-1" d="M163.91683,41.97685l-15.012.00021c-5.88068,0-10.66432-4.04977-10.66432-9.03018,0-4.98,4.78364-9.03,10.66432-9.03h24.039l.071-.00077c14.14617-.25619,18.85315-14.88763,19.04659-15.50981l1.38254-4.44923-5.3139.96229c-7.23523,1.31188-16.95058,1.97721-28.87548,1.97721-3.40616,0-6.15449-.05478-7.97344-.0908-.62333-.01207-1.12278-.02236-1.47651-.02629-.299-.00794-.59849-.01268-.89987-.01268-17.04776,0-30.91637,11.74452-30.91637,26.1801,0,14.43594,13.86861,26.18245,30.91637,26.18245l15.012-.002c5.87785,0,10.66192,4.05175,10.66192,9.03038,0,4.97842-4.78407,9.0294-10.66192,9.0294H139.87776l-.072.00077c-14.14526.2564-18.85339,14.88622-19.04683,15.51063l-1.383,4.449,5.31323-.9623c7.23753-1.31207,16.9524-1.97757,28.87591-1.97757,3.409,0,6.155.05457,7.97391.091.6252.01345,1.12045.02293,1.47508.02609.3009.00713.6018.01345.90275.01345,17.04445,0,30.91493-11.7461,30.91493-26.18046C194.83176,53.72158,180.96128,41.97685,163.91683,41.97685Z"/></clipPath><clipPath id="clip-path-3" transform="translate(12.25633 21.8772)"><path class="cls-1" d="M275,25.884,259.353,41.6095a21.18625,21.18625,0,0,0-3.20791-5.90678,21.61362,21.61362,0,0,0-4.57662-4.42037,19.84927,19.84927,0,0,0-5.51586-2.73829,20.15315,20.15315,0,0,0-6.10217-.93881,19.35555,19.35555,0,0,0-8.25415,1.79949,20.23773,20.23773,0,0,0-6.728,5.04624,24.18265,24.18265,0,0,0-4.49864,7.70612,28.323,28.323,0,0,0-1.6431,9.85767,20.62257,20.62257,0,0,0,1.6431,8.21487,21.56841,21.56841,0,0,0,4.49864,6.72833,20.68221,20.68221,0,0,0,6.728,4.53763,21.53695,21.53695,0,0,0,14.27834.78241,21.763,21.763,0,0,0,5.4373-2.46449,20.23787,20.23787,0,0,0,4.53763-3.91176,20.55929,20.55929,0,0,0,3.2469-5.12452l15.647,15.72561a42.11533,42.11533,0,0,1-6.84558,7.58871,43.18935,43.18935,0,0,1-8.37113,5.7114,41.84628,41.84628,0,0,1-9.46661,3.55969,42.93211,42.93211,0,0,1-10.20975,1.21275,41.87888,41.87888,0,0,1-16.62527-3.32517,42.87757,42.87757,0,0,1-22.80571-22.64917,41.16711,41.16711,0,0,1-3.36416-16.58629,47.79432,47.79432,0,0,1,3.36416-17.99413,46.38319,46.38319,0,0,1,9.19252-14.591A43.474,43.474,0,0,1,223.32512,9.611a39.1469,39.1469,0,0,1,16.62527-3.59882,40.2211,40.2211,0,0,1,10.288,1.33A41.51814,41.51814,0,0,1,268.311,17.43464,38.73093,38.73093,0,0,1,275,25.884Z"/></clipPath></defs><title>nelson_logo</title><g id="w"><g class="cls-2"><polygon class="cls-3" points="0 84.427 0.711 83.717 0 83.007 0 84.427"/><polygon class="cls-4" points="0 83.007 0.711 83.717 10.706 73.721 0.711 63.725 0 64.435 0 83.007"/><rect class="cls-5" x="-8.61817" y="34.77947" width="14.13626" height="14.13626" transform="translate(-17.78838 33.03803) rotate(-45)"/><rect class="cls-6" x="1.37772" y="24.78368" width="14.13626" height="14.13626" transform="translate(-7.7924 37.17821) rotate(-44.99944)"/><rect class="cls-7" x="11.3736" y="14.78791" width="14.1362" height="14.1362" transform="translate(2.20325 41.31892) rotate(-45)"/><rect class="cls-8" x="21.36939" y="4.79195" width="14.13641" height="14.13641" transform="translate(12.19923 45.45965) rotate(-45.00057)"/><polygon class="cls-9" points="41.399 23.036 40.694 23.741 50.69 33.737 60.686 23.741 59.981 23.036 41.399 23.036"/><polygon class="cls-10" points="59.981 23.036 60.686 23.741 61.391 23.036 59.981 23.036"/><polygon class="cls-11" points="0 104.42 0.711 103.709 0 102.998 0 104.42"/><polygon class="cls-12" points="0 102.998 0.711 103.709 10.706 93.713 0.711 83.717 0 84.427 0 102.998"/><rect class="cls-13" x="-8.61831" y="54.77141" width="14.13653" height="14.13653" transform="translate(-31.9258 38.89441) rotate(-45.00113)"/><rect class="cls-14" x="1.37761" y="44.7753" width="14.13646" height="14.13646" transform="translate(-21.92885 43.03393) rotate(-45)"/><rect class="cls-15" x="11.3736" y="34.7795" width="14.1362" height="14.1362" transform="translate(-11.93277 47.1739) rotate(-44.99944)"/><rect class="cls-16" x="21.36944" y="24.78364" width="14.13633" height="14.13633" transform="translate(-1.93713 51.31513) rotate(-45.00045)"/><rect class="cls-17" x="31.36544" y="14.78781" width="14.13639" height="14.13639" transform="translate(8.05843 55.45418) rotate(-44.99842)"/><rect class="cls-18" x="41.36141" y="4.7918" width="14.13654" height="14.13654" transform="translate(18.05544 59.59706) rotate(-45.00158)"/><polygon class="cls-19" points="61.391 23.036 60.686 23.741 70.682 33.737 80.678 23.741 79.972 23.036 61.391 23.036"/><polygon class="cls-20" points="79.972 23.036 80.678 23.741 81.384 23.036 79.972 23.036"/><polygon class="cls-21" points="0 122.991 0.711 123.701 10.706 113.705 0.711 103.709 0 104.42 0 122.991"/><rect class="cls-22" x="-8.61821" y="74.76382" width="14.13632" height="14.13632" transform="translate(-46.06266 44.75019) rotate(-45.00102)"/><rect class="cls-23" x="1.37755" y="64.76761" width="14.13659" height="14.13659" transform="translate(-36.06647 48.89068) rotate(-45.00113)"/><rect class="cls-24" x="11.37346" y="54.77144" width="14.13648" height="14.13648" transform="translate(-26.06977 53.03043) rotate(-45.00057)"/><rect class="cls-25" x="21.36933" y="44.77527" width="14.13653" height="14.13653" transform="translate(-16.0737 57.17124) rotate(-45.00102)"/><rect class="cls-26" x="31.36544" y="34.7794" width="14.13639" height="14.13639" transform="translate(-6.07734 61.30863) rotate(-44.99785)"/><rect class="cls-27" x="41.36151" y="24.78364" width="14.13633" height="14.13633" transform="translate(3.91853 65.45177) rotate(-45.00045)"/><rect class="cls-28" x="51.35752" y="14.78782" width="14.13638" height="14.13638" transform="translate(13.91358 69.59031) rotate(-44.99841)"/><rect class="cls-29" x="61.35347" y="4.79209" width="14.13613" height="14.13613" transform="translate(23.91062 73.73297) rotate(-45.00069)"/><polygon class="cls-30" points="81.384 23.036 80.678 23.741 90.674 33.737 100.67 23.741 99.964 23.036 81.384 23.036"/><rect class="cls-31" x="-8.61824" y="94.75571" width="14.13639" height="14.13639" transform="translate(-60.19934 50.60594) rotate(-45.00102)"/><rect class="cls-32" x="1.37765" y="84.75972" width="14.13639" height="14.13639" transform="translate(-50.20162 54.74453) rotate(-44.99955)"/><rect class="cls-33" x="11.37356" y="74.76385" width="14.13627" height="14.13627" transform="translate(-40.20652 58.88604) rotate(-45.00045)"/><rect class="cls-34" x="21.36927" y="64.76757" width="14.13666" height="14.13666" transform="translate(-30.21129 63.02852) rotate(-45.00215)"/><rect class="cls-35" x="31.3653" y="54.77134" width="14.13667" height="14.13667" transform="translate(-20.21367 67.16504) rotate(-44.99898)"/><rect class="cls-36" x="41.36141" y="44.77527" width="14.13654" height="14.13654" transform="translate(-10.2179 71.30803) rotate(-45.00102)"/><rect class="cls-37" x="51.35752" y="34.77941" width="14.13638" height="14.13638" transform="translate(-0.22233 75.44462) rotate(-44.99785)"/><rect class="cls-38" x="61.35352" y="24.78378" width="14.13605" height="14.13605" transform="translate(9.77417 79.58842) rotate(-45.00057)"/><rect class="cls-39" x="71.34918" y="14.78781" width="14.13639" height="14.13639" transform="translate(19.77012 83.72883) rotate(-45.00057)"/><rect class="cls-40" x="81.34524" y="4.79188" width="14.13655" height="14.13655" transform="translate(29.76416 87.86679) rotate(-44.99842)"/><rect class="cls-41" x="1.37761" y="104.75172" width="14.13646" height="14.13646" transform="translate(-64.33873 60.60078) rotate(-45.00011)"/><rect class="cls-42" x="11.37353" y="94.75574" width="14.13634" height="14.13634" transform="translate(-54.34306 64.74165) rotate(-45.00045)"/><rect class="cls-43" x="21.36937" y="84.75969" width="14.13646" height="14.13646" transform="translate(-44.34707 68.88223) rotate(-45.00057)"/><rect class="cls-44" x="31.3654" y="74.76375" width="14.13646" height="14.13646" transform="translate(-34.35006 73.02024) rotate(-44.99887)"/><rect class="cls-45" x="41.36135" y="64.76757" width="14.13666" height="14.13666" transform="translate(-24.35522 77.16559) rotate(-45.00215)"/><rect class="cls-46" x="51.35738" y="54.77134" width="14.13666" height="14.13666" transform="translate(-14.35838 81.30131) rotate(-44.99898)"/><rect class="cls-47" x="61.35341" y="44.77541" width="14.13625" height="14.13625" transform="translate(-4.36214 85.44484) rotate(-45.00114)"/><rect class="cls-48" x="71.34918" y="34.7794" width="14.13639" height="14.13639" transform="translate(5.63353 89.58353) rotate(-45)"/><rect class="cls-49" x="81.34528" y="24.78357" width="14.13646" height="14.13646" transform="translate(15.62824 93.72165) rotate(-44.9983)"/><rect class="cls-50" x="91.34149" y="14.78774" width="14.13653" height="14.13653" transform="translate(25.62482 97.86404) rotate(-44.99944)"/><rect class="cls-51" x="11.37353" y="114.74782" width="14.13634" height="14.13634" transform="translate(-68.47971 70.59731) rotate(-45.00045)"/><rect class="cls-52" x="21.36933" y="104.75168" width="14.13653" height="14.13653" transform="translate(-58.4843 74.73888) rotate(-45.00113)"/><rect class="cls-53" x="31.36537" y="94.75564" width="14.13653" height="14.13653" transform="translate(-48.48621 78.87546) rotate(-44.99887)"/><rect class="cls-54" x="41.36144" y="84.75969" width="14.13647" height="14.13647" transform="translate(-38.49139 83.0189) rotate(-45.00057)"/><rect class="cls-55" x="51.35748" y="74.76375" width="14.13645" height="14.13645" transform="translate(-28.49479 87.15647) rotate(-44.99886)"/><rect class="cls-56" x="61.35341" y="64.76757" width="14.13666" height="14.13666" transform="translate(-18.49915 91.30284) rotate(-45.00227)"/><rect class="cls-57" x="71.34938" y="54.7712" width="14.13639" height="14.13695" transform="translate(-8.50271 95.44118) rotate(-45.00113)"/><rect class="cls-58" x="81.34518" y="44.7752" width="14.13667" height="14.13667" transform="translate(1.49263 99.57766) rotate(-44.99887)"/><rect class="cls-59" x="91.34156" y="34.77936" width="14.13639" height="14.13667" transform="translate(11.48831 103.71835) rotate(-44.99887)"/><rect class="cls-60" x="101.33766" y="24.78367" width="14.13646" height="14.13646" transform="translate(21.48339 107.85801) rotate(-44.9983)"/><rect class="cls-61" x="21.36933" y="124.74376" width="14.13653" height="14.13653" transform="translate(-72.62111 80.5947) rotate(-45.00113)"/><polygon class="cls-40" points="101.375 23.036 100.671 23.741 110.667 33.737 120.662 23.741 119.957 23.036 101.375 23.036"/><rect class="cls-62" x="31.36537" y="114.74772" width="14.13653" height="14.13653" transform="translate(-62.62246 84.73072) rotate(-44.99887)"/><rect class="cls-50" x="101.33797" y="4.79128" width="14.1364" height="14.1364" transform="translate(35.62239 102.00616) rotate(-45.00045)"/><polygon class="cls-50" points="121.367 23.036 120.662 23.741 130.658 33.737 140.654 23.741 139.949 23.036 121.367 23.036"/><rect class="cls-63" x="41.36141" y="104.75168" width="14.13654" height="14.13654" transform="translate(-52.62847 88.87569) rotate(-45.00113)"/><rect class="cls-60" x="111.33385" y="14.7873" width="14.13633" height="14.13633" transform="translate(31.48213 112.00253) rotate(-45.00067)"/><polygon class="cls-60" points="140.654 43.733 141.364 43.023 141.364 24.451 140.654 23.741 130.658 33.737 140.654 43.733"/><rect class="cls-64" x="51.35745" y="94.75565" width="14.13652" height="14.13652" transform="translate(-42.63094 93.01169) rotate(-44.99886)"/><polygon class="cls-65" points="140.654 63.724 141.364 63.014 141.364 44.443 140.654 43.733 130.658 53.728 140.654 63.724"/><rect class="cls-66" x="61.35345" y="84.75983" width="14.13618" height="14.13618" transform="translate(-32.63581 97.15566) rotate(-45.00069)"/><rect class="cls-67" x="71.3492" y="74.76389" width="14.13674" height="14.13619" transform="translate(-22.63958 101.29237) rotate(-44.99876)"/><rect class="cls-68" x="81.34545" y="64.76764" width="14.13652" height="14.13652" transform="translate(-12.64308 105.43985) rotate(-45.00226)"/><rect class="cls-69" x="91.34135" y="54.77127" width="14.13681" height="14.13681" transform="translate(-2.64737 109.57582) rotate(-45)"/><rect class="cls-70" x="101.33769" y="44.77544" width="14.13639" height="14.13639" transform="translate(7.34712 113.71191) rotate(-44.99774)"/><rect class="cls-71" x="111.33358" y="34.77977" width="14.13613" height="14.13585" transform="translate(17.34565 117.85894) rotate(-45.00113)"/><polygon class="cls-72" points="59.971 164.399 60.686 163.685 50.69 153.689 40.694 163.685 41.409 164.399 59.971 164.399"/><rect class="cls-73" x="41.36141" y="124.74376" width="14.13654" height="14.13654" transform="translate(-66.76529 94.73151) rotate(-45.00113)"/><polygon class="cls-40" points="119.957 23.036 120.662 23.741 121.367 23.036 119.957 23.036"/><polygon class="cls-50" points="139.949 23.036 140.654 23.741 141.359 23.036 139.949 23.036"/><polygon class="cls-60" points="141.359 23.036 140.654 23.741 141.364 24.451 141.364 23.036 141.359 23.036"/><polygon class="cls-65" points="141.364 44.443 141.364 43.023 140.654 43.733 141.364 44.443"/><rect class="cls-74" x="51.35745" y="114.74773" width="14.13652" height="14.13652" transform="translate(-56.7672 98.86696) rotate(-44.99886)"/><rect class="cls-75" x="61.35341" y="104.75182" width="14.13625" height="14.13625" transform="translate(-46.77278 103.01262) rotate(-45.00125)"/><rect class="cls-76" x="71.34911" y="94.75564" width="14.13653" height="14.13653" transform="translate(-36.77642 107.15245) rotate(-45.00102)"/><rect class="cls-77" x="81.34522" y="84.75962" width="14.1366" height="14.1366" transform="translate(-26.78002 111.28725) rotate(-44.99842)"/><rect class="cls-68" x="91.34145" y="74.76368" width="14.1366" height="14.1366" transform="translate(-16.78409 115.43118) rotate(-44.99989)"/><rect class="cls-78" x="101.33756" y="64.76757" width="14.13666" height="14.13666" transform="translate(-6.78797 119.57199) rotate(-45)"/><rect class="cls-79" x="111.33351" y="54.77154" width="14.13627" height="14.13627" transform="translate(3.20891 123.71474) rotate(-45.00113)"/><polygon class="cls-80" points="140.653 83.717 141.364 83.007 141.364 64.435 140.653 63.725 130.658 73.721 140.653 83.717"/><polygon class="cls-81" points="61.401 164.399 60.686 163.685 59.971 164.399 61.401 164.399"/><polygon class="cls-82" points="79.962 164.399 80.678 163.685 70.682 153.689 60.686 163.685 61.401 164.399 79.962 164.399"/><rect class="cls-83" x="61.35341" y="124.7439" width="14.13625" height="14.13625" transform="translate(-60.90962 108.86847) rotate(-45.00125)"/><rect class="cls-84" x="71.34911" y="114.74772" width="14.13653" height="14.13653" transform="translate(-50.9132 113.00825) rotate(-45.00102)"/><rect class="cls-85" x="81.34518" y="104.75161" width="14.13667" height="14.13667" transform="translate(-40.9163 117.14379) rotate(-44.99898)"/><rect class="cls-86" x="91.34142" y="94.75557" width="14.13667" height="14.13667" transform="translate(-30.92049 121.28665) rotate(-44.99989)"/><rect class="cls-87" x="101.33766" y="84.75969" width="14.13646" height="14.13646" transform="translate(-20.92478 125.4236) rotate(-44.99842)"/><rect class="cls-79" x="111.33361" y="74.76395" width="14.13606" height="14.13606" transform="translate(-10.92812 129.57035) rotate(-45.00102)"/><polygon class="cls-80" points="140.653 103.709 141.364 102.998 141.364 84.427 140.653 83.717 130.658 93.713 140.653 103.709"/><polygon class="cls-80" points="141.364 84.427 141.364 83.007 140.653 83.717 141.364 84.427"/><polygon class="cls-88" points="81.394 164.399 80.678 163.685 79.962 164.399 81.394 164.399"/><polygon class="cls-89" points="99.954 164.399 100.67 163.685 90.674 153.689 80.678 163.685 81.394 164.399 99.954 164.399"/><rect class="cls-90" x="81.34518" y="124.74369" width="14.13667" height="14.13667" transform="translate(-55.05258 122.99908) rotate(-44.99898)"/><rect class="cls-91" x="91.34142" y="114.74765" width="14.13667" height="14.13667" transform="translate(-45.057 127.14217) rotate(-44.99989)"/><rect class="cls-92" x="101.33762" y="104.75168" width="14.13653" height="14.13653" transform="translate(-35.06092 131.28028) rotate(-44.99898)"/><rect class="cls-70" x="111.33358" y="94.75585" width="14.13613" height="14.13613" transform="translate(-25.0648 135.4261) rotate(-45.00102)"/><polygon class="cls-93" points="140.653 123.701 141.364 122.991 141.364 104.42 140.653 103.709 130.658 113.705 140.653 123.701"/><polygon class="cls-93" points="141.364 104.42 141.364 102.998 140.653 103.709 141.364 104.42"/><polygon class="cls-90" points="101.386 164.399 100.668 163.684 99.953 164.399 101.386 164.399"/><polygon class="cls-90" points="119.944 164.399 120.66 163.684 110.664 153.688 100.668 163.684 101.386 164.399 119.944 164.399"/><rect class="cls-90" x="101.33569" y="124.74222" width="14.13653" height="14.13653" transform="translate(-49.19733 137.14046) rotate(-45.00124)"/><rect class="cls-92" x="111.33173" y="114.74618" width="14.13654" height="14.13654" transform="translate(-39.20088 141.27358) rotate(-44.99876)"/><polygon class="cls-71" points="140.652 143.692 141.364 142.98 141.364 124.411 140.652 123.7 130.657 133.696 140.652 143.692"/><polygon class="cls-93" points="141.364 124.411 141.364 122.988 140.652 123.7 141.364 124.411"/><polygon class="cls-90" points="121.378 164.399 120.66 163.684 119.944 164.399 121.378 164.399"/><polygon class="cls-90" points="139.936 164.399 140.652 163.684 130.657 153.688 120.66 163.684 121.378 164.399 139.936 164.399"/><polygon class="cls-92" points="140.652 163.684 141.364 162.972 141.364 144.403 140.652 143.692 130.657 153.688 140.652 163.684"/><polygon class="cls-71" points="141.364 144.403 141.364 142.98 140.652 143.692 141.364 144.403"/><polygon class="cls-90" points="141.364 164.399 141.364 164.395 140.652 163.684 139.936 164.399 141.364 164.399"/><polygon class="cls-92" points="141.364 164.395 141.364 162.972 140.652 163.684 141.364 164.395"/><polygon class="cls-30" points="99.965 23.036 100.671 23.741 101.375 23.036 99.965 23.036"/><polygon class="cls-65" points="141.364 64.434 141.364 63.014 140.654 63.724 141.364 64.434"/><polygon class="cls-5" points="0 23.036 0 24.535 0.752 23.783 0.005 23.036 0 23.036"/><polygon class="cls-8" points="0.005 23.036 0.752 23.783 1.498 23.036 0.005 23.036"/><polygon class="cls-5" points="0 44.526 0.751 43.774 0 43.023 0 44.526"/><polygon class="cls-6" points="0 43.023 0.751 43.774 10.748 33.778 0.752 23.783 0 24.535 0 43.023"/><polygon class="cls-8" points="1.498 23.036 0.752 23.783 10.748 33.778 20.743 23.782 19.997 23.036 1.498 23.036"/><polygon class="cls-8" points="19.997 23.036 20.743 23.782 21.49 23.036 19.997 23.036"/><polygon class="cls-5" points="0 64.518 0.752 63.766 0 63.014 0 64.518"/><polygon class="cls-6" points="0 63.014 0.752 63.766 10.748 53.77 0.751 43.774 0 44.526 0 63.014"/><rect class="cls-5" x="-8.57713" y="14.82893" width="14.13646" height="14.13646" transform="translate(-3.66892 27.22349) rotate(-44.99887)"/><rect class="cls-8" x="1.41882" y="4.83306" width="14.13624" height="14.13624" transform="translate(6.32665 31.3644) rotate(-45.00102)"/><polygon class="cls-8" points="21.49 23.036 20.743 23.782 30.739 33.778 40.735 23.783 39.989 23.036 21.49 23.036"/><polygon class="cls-8" points="39.989 23.036 40.735 23.783 41.482 23.036 39.989 23.036"/><polygon class="cls-41" points="0 124.411 0.711 123.701 0 122.991 0 124.411"/><polygon class="cls-41" points="0 144.402 0.711 143.693 0 142.982 0 144.402"/><polygon class="cls-41" points="0 142.982 0.711 143.693 10.706 133.697 0.711 123.701 0 124.411 0 142.982"/><polygon class="cls-41" points="0 164.395 0.711 163.685 0 162.974 0 164.395"/><polygon class="cls-41" points="0 162.974 0.711 163.685 10.706 153.689 0.711 143.693 0 144.402 0 162.974"/><rect class="cls-41" x="-8.61824" y="114.74779" width="14.13639" height="14.13639" transform="translate(-74.33613 56.46174) rotate(-45.00102)"/><polygon class="cls-61" points="0 164.399 1.426 164.399 0.711 163.685 0 164.395 0 164.399"/><polygon class="cls-61" points="19.987 164.399 20.702 163.685 10.706 153.689 0.711 163.685 1.426 164.399 19.987 164.399"/><rect class="cls-61" x="1.37761" y="124.7438" width="14.13646" height="14.13646" transform="translate(-78.47529 66.45636) rotate(-45.00011)"/><polygon class="cls-61" points="21.418 164.399 20.702 163.685 19.987 164.399 21.418 164.399"/><polygon class="cls-61" points="39.978 164.399 40.694 163.685 30.698 153.689 20.702 163.685 21.418 164.399 39.978 164.399"/><polygon class="cls-61" points="41.409 164.399 40.694 163.685 39.978 164.399 41.409 164.399"/></g></g><g id="s"><g class="cls-94"><polygon class="cls-3" points="196.38 0 195.521 0.728 194.661 0 196.38 0"/><polygon class="cls-4" points="194.661 0 195.521 0.728 183.427 10.971 171.329 0.728 172.189 0 194.661 0"/><polygon class="cls-5" points="159.234 10.971 171.329 0.728 183.427 10.971 171.329 21.214 159.234 10.971"/><polygon class="cls-6" points="147.138 21.214 159.234 10.971 171.329 21.214 159.234 31.457 147.138 21.214"/><polygon class="cls-7" points="135.043 31.457 147.138 21.214 159.234 31.457 147.138 41.7 135.043 31.457"/><polygon class="cls-8" points="122.948 41.7 135.043 31.457 147.138 41.7 135.043 51.943 122.948 41.7"/><polygon class="cls-9" points="122.094 42.422 122.948 41.7 135.043 51.943 122.948 62.186 122.094 61.464 122.094 42.422"/><polygon class="cls-10" points="122.094 61.464 122.948 62.186 122.094 62.909 122.094 61.464"/><polygon class="cls-11" points="220.572 0 219.712 0.728 218.852 0 220.572 0"/><polygon class="cls-12" points="218.852 0 219.712 0.728 207.618 10.971 195.521 0.728 196.38 0 218.852 0"/><polygon class="cls-13" points="183.427 10.971 195.521 0.728 207.618 10.971 195.521 21.214 183.427 10.971"/><polygon class="cls-14" points="171.329 21.214 183.427 10.971 195.521 21.214 183.427 31.457 171.329 21.214"/><polygon class="cls-15" points="159.234 31.457 171.329 21.214 183.427 31.457 171.329 41.7 159.234 31.457"/><polygon class="cls-16" points="147.138 41.7 159.234 31.457 171.329 41.7 159.234 51.943 147.138 41.7"/><polygon class="cls-17" points="135.043 51.943 147.138 41.7 159.234 51.943 147.138 62.186 135.043 51.943"/><polygon class="cls-18" points="122.948 62.186 135.043 51.943 147.138 62.186 135.043 72.429 122.948 62.186"/><polygon class="cls-19" points="122.094 62.909 122.948 62.186 135.043 72.429 122.948 82.672 122.094 81.95 122.094 62.909"/><polygon class="cls-20" points="122.094 81.95 122.948 82.672 122.094 83.395 122.094 81.95"/><polygon class="cls-21" points="243.043 0 243.903 0.728 231.807 10.971 219.712 0.728 220.572 0 243.043 0"/><polygon class="cls-22" points="207.618 10.971 219.712 0.728 231.807 10.971 219.712 21.214 207.618 10.971"/><polygon class="cls-23" points="195.521 21.214 207.618 10.971 219.712 21.214 207.618 31.457 195.521 21.214"/><polygon class="cls-24" points="183.427 31.457 195.521 21.214 207.618 31.457 195.521 41.7 183.427 31.457"/><polygon class="cls-25" points="171.329 41.7 183.427 31.457 195.521 41.7 183.427 51.943 171.329 41.7"/><polygon class="cls-26" points="159.234 51.943 171.329 41.7 183.427 51.943 171.329 62.186 159.234 51.943"/><polygon class="cls-27" points="147.138 62.186 159.234 51.943 171.329 62.186 159.234 72.429 147.138 62.186"/><polygon class="cls-28" points="135.043 72.429 147.138 62.186 159.234 72.429 147.138 82.672 135.043 72.429"/><polygon class="cls-29" points="122.948 82.672 135.043 72.429 147.138 82.672 135.043 92.915 122.948 82.672"/><polygon class="cls-30" points="122.094 83.395 122.948 82.672 135.043 92.915 122.948 103.158 122.094 102.436 122.094 83.395"/><polygon class="cls-31" points="231.807 10.971 243.903 0.728 255.998 10.971 243.903 21.214 231.807 10.971"/><polygon class="cls-32" points="219.712 21.214 231.807 10.971 243.903 21.214 231.807 31.457 219.712 21.214"/><polygon class="cls-33" points="207.618 31.457 219.712 21.214 231.807 31.457 219.712 41.7 207.618 31.457"/><polygon class="cls-34" points="195.521 41.7 207.618 31.457 219.712 41.7 207.618 51.943 195.521 41.7"/><polygon class="cls-35" points="183.427 51.943 195.521 41.7 207.618 51.943 195.521 62.186 183.427 51.943"/><polygon class="cls-36" points="171.329 62.186 183.427 51.943 195.521 62.186 183.427 72.429 171.329 62.186"/><polygon class="cls-37" points="159.234 72.429 171.329 62.186 183.427 72.429 171.329 82.672 159.234 72.429"/><polygon class="cls-38" points="147.138 82.672 159.234 72.429 171.329 82.672 159.234 92.915 147.138 82.672"/><polygon class="cls-39" points="135.043 92.915 147.138 82.672 159.234 92.915 147.138 103.158 135.043 92.915"/><polygon class="cls-40" points="122.948 103.158 135.043 92.915 147.138 103.158 135.043 113.402 122.948 103.158"/><polygon class="cls-41" points="243.903 21.214 255.998 10.971 268.095 21.214 255.998 31.457 243.903 21.214"/><polygon class="cls-42" points="231.807 31.457 243.903 21.214 255.998 31.457 243.903 41.7 231.807 31.457"/><polygon class="cls-43" points="219.712 41.7 231.807 31.457 243.903 41.7 231.807 51.943 219.712 41.7"/><polygon class="cls-44" points="207.618 51.943 219.712 41.7 231.807 51.943 219.712 62.186 207.618 51.943"/><polygon class="cls-45" points="195.521 62.186 207.618 51.943 219.712 62.186 207.618 72.429 195.521 62.186"/><polygon class="cls-46" points="183.427 72.429 195.521 62.186 207.618 72.429 195.521 82.672 183.427 72.429"/><polygon class="cls-47" points="171.329 82.672 183.427 72.429 195.521 82.672 183.427 92.915 171.329 82.672"/><polygon class="cls-48" points="159.234 92.915 171.329 82.672 183.427 92.915 171.329 103.158 159.234 92.915"/><polygon class="cls-49" points="147.138 103.158 159.234 92.915 171.329 103.158 159.234 113.402 147.138 103.158"/><polygon class="cls-50" points="135.043 113.402 147.138 103.158 159.234 113.402 147.138 123.643 135.043 113.402"/><polygon class="cls-51" points="255.998 31.457 268.095 21.214 280.188 31.457 268.095 41.7 255.998 31.457"/><polygon class="cls-52" points="243.903 41.7 255.998 31.457 268.095 41.7 255.998 51.943 243.903 41.7"/><polygon class="cls-53" points="231.807 51.943 243.903 41.7 255.998 51.943 243.903 62.186 231.807 51.943"/><polygon class="cls-54" points="219.712 62.186 231.807 51.943 243.903 62.186 231.807 72.429 219.712 62.186"/><polygon class="cls-55" points="207.618 72.429 219.712 62.186 231.807 72.429 219.712 82.672 207.618 72.429"/><polygon class="cls-56" points="195.521 82.672 207.618 72.429 219.712 82.672 207.618 92.915 195.521 82.672"/><polygon class="cls-57" points="183.427 92.915 195.521 82.672 207.618 92.915 195.521 103.158 183.427 92.915"/><polygon class="cls-58" points="171.329 103.158 183.427 92.915 195.521 103.158 183.427 113.402 171.329 103.158"/><polygon class="cls-59" points="159.234 113.402 171.329 103.158 183.427 113.402 171.33 123.643 159.234 113.402"/><polygon class="cls-60" points="147.138 123.643 159.234 113.402 171.33 123.643 159.234 133.888 147.138 123.643"/><polygon class="cls-61" points="268.095 41.7 280.188 31.457 292.286 41.7 280.188 51.943 268.095 41.7"/><polygon class="cls-40" points="122.094 103.881 122.948 103.158 135.043 113.403 122.948 123.644 122.094 122.924 122.094 103.881"/><polygon class="cls-62" points="255.998 51.943 268.095 41.7 280.188 51.943 268.095 62.186 255.998 51.943"/><polygon class="cls-50" points="122.948 123.644 135.043 113.403 147.138 123.644 135.043 133.889 122.948 123.644"/><polygon class="cls-50" points="122.094 124.367 122.948 123.644 135.043 133.889 122.948 144.13 122.094 143.41 122.094 124.367"/><polygon class="cls-63" points="243.903 62.186 255.998 51.943 268.095 62.186 255.998 72.429 243.903 62.186"/><polygon class="cls-60" points="135.043 133.889 147.138 123.644 159.234 133.889 147.138 144.13 135.043 133.889"/><polygon class="cls-60" points="147.138 144.13 146.279 144.857 123.807 144.857 122.948 144.13 135.043 133.889 147.138 144.13"/><polygon class="cls-64" points="231.807 72.429 243.903 62.186 255.998 72.429 243.903 82.672 231.807 72.429"/><polygon class="cls-65" points="171.328 144.13 170.47 144.857 147.998 144.857 147.138 144.13 159.234 133.889 171.328 144.13"/><polygon class="cls-66" points="219.712 82.672 231.807 72.429 243.903 82.672 231.807 92.915 219.712 82.672"/><polygon class="cls-67" points="207.618 92.915 219.712 82.672 231.807 92.915 219.712 103.158 207.618 92.915"/><polygon class="cls-68" points="195.521 103.158 207.618 92.915 219.712 103.158 207.618 113.402 195.521 103.158"/><polygon class="cls-69" points="183.427 113.402 195.521 103.158 207.618 113.402 195.521 123.643 183.427 113.402"/><polygon class="cls-70" points="171.33 123.643 183.427 113.402 195.521 123.643 183.427 133.888 171.33 123.643"/><polygon class="cls-71" points="159.234 133.888 171.33 123.643 183.427 133.888 171.329 144.129 159.234 133.888"/><polygon class="cls-72" points="293.15 61.453 292.286 62.186 280.188 51.943 292.286 41.7 293.15 42.433 293.15 61.453"/><polygon class="cls-73" points="268.095 62.186 280.188 51.943 292.286 62.186 280.188 72.429 268.095 62.186"/><polygon class="cls-40" points="122.094 122.924 122.948 123.644 122.094 124.367 122.094 122.924"/><polygon class="cls-50" points="122.094 143.41 122.948 144.13 122.094 144.854 122.094 143.41"/><polygon class="cls-60" points="122.094 144.854 122.948 144.13 123.807 144.857 122.094 144.857 122.094 144.854"/><polygon class="cls-65" points="147.998 144.857 146.279 144.857 147.138 144.13 147.998 144.857"/><polygon class="cls-74" points="255.998 72.429 268.095 62.186 280.188 72.429 268.095 82.672 255.998 72.429"/><polygon class="cls-75" points="243.903 82.672 255.998 72.429 268.095 82.672 255.998 92.915 243.903 82.672"/><polygon class="cls-76" points="231.807 92.915 243.903 82.672 255.998 92.915 243.903 103.158 231.807 92.915"/><polygon class="cls-77" points="219.712 103.158 231.807 92.915 243.903 103.158 231.807 113.402 219.712 103.158"/><polygon class="cls-68" points="207.618 113.402 219.712 103.158 231.807 113.402 219.712 123.643 207.618 113.402"/><polygon class="cls-78" points="195.521 123.643 207.618 113.402 219.712 123.643 207.618 133.888 195.521 123.643"/><polygon class="cls-79" points="183.427 133.888 195.521 123.643 207.618 133.888 195.521 144.129 183.427 133.888"/><polygon class="cls-80" points="195.521 144.129 194.661 144.857 172.189 144.857 171.329 144.129 183.427 133.888 195.521 144.129"/><polygon class="cls-81" points="293.15 62.919 292.286 62.186 293.15 61.453 293.15 62.919"/><polygon class="cls-82" points="293.15 81.939 292.286 82.672 280.188 72.429 292.286 62.186 293.15 62.919 293.15 81.939"/><polygon class="cls-83" points="268.095 82.672 280.188 72.429 292.286 82.672 280.188 92.915 268.095 82.672"/><polygon class="cls-84" points="255.998 92.915 268.095 82.672 280.188 92.915 268.095 103.158 255.998 92.915"/><polygon class="cls-85" points="243.903 103.158 255.998 92.915 268.095 103.158 255.998 113.402 243.903 103.158"/><polygon class="cls-86" points="231.807 113.402 243.903 103.158 255.998 113.402 243.903 123.643 231.807 113.402"/><polygon class="cls-87" points="219.712 123.643 231.807 113.402 243.903 123.643 231.807 133.888 219.712 123.643"/><polygon class="cls-79" points="207.618 133.888 219.712 123.643 231.807 133.888 219.712 144.129 207.618 133.888"/><polygon class="cls-80" points="219.712 144.129 218.852 144.857 196.381 144.857 195.521 144.129 207.618 133.888 219.712 144.129"/><polygon class="cls-80" points="196.381 144.857 194.661 144.857 195.521 144.129 196.381 144.857"/><polygon class="cls-88" points="293.15 83.406 292.286 82.672 293.15 81.939 293.15 83.406"/><polygon class="cls-89" points="293.15 102.425 292.286 103.158 280.188 92.915 292.286 82.672 293.15 83.406 293.15 102.425"/><polygon class="cls-90" points="268.095 103.158 280.188 92.915 292.286 103.158 280.188 113.402 268.095 103.158"/><polygon class="cls-91" points="255.998 113.402 268.095 103.158 280.188 113.402 268.095 123.643 255.998 113.402"/><polygon class="cls-92" points="243.903 123.643 255.998 113.402 268.095 123.643 255.998 133.888 243.903 123.643"/><polygon class="cls-70" points="231.807 133.888 243.903 123.643 255.998 133.888 243.903 144.129 231.807 133.888"/><polygon class="cls-93" points="243.903 144.129 243.043 144.857 220.571 144.857 219.712 144.129 231.807 133.888 243.903 144.129"/><polygon class="cls-93" points="220.571 144.857 218.852 144.857 219.712 144.129 220.571 144.857"/><polygon class="cls-90" points="293.15 103.892 292.284 103.158 293.15 102.422 293.15 103.892"/><polygon class="cls-90" points="293.15 122.908 292.284 123.643 280.188 113.4 292.284 103.158 293.15 103.892 293.15 122.908"/><polygon class="cls-90" points="268.092 123.643 280.188 113.4 292.284 123.643 280.188 133.886 268.092 123.643"/><polygon class="cls-92" points="255.998 133.886 268.092 123.643 280.188 133.886 268.092 144.129 255.998 133.886"/><polygon class="cls-71" points="268.092 144.129 267.23 144.857 244.763 144.857 243.902 144.129 255.998 133.886 268.092 144.129"/><polygon class="cls-93" points="244.763 144.857 243.039 144.857 243.902 144.129 244.763 144.857"/><polygon class="cls-90" points="293.15 124.378 292.284 123.643 293.15 122.908 293.15 124.378"/><polygon class="cls-90" points="293.15 143.394 292.284 144.129 280.188 133.886 292.284 123.643 293.15 124.378 293.15 143.394"/><polygon class="cls-92" points="292.284 144.129 291.422 144.857 268.954 144.857 268.092 144.129 280.188 133.886 292.284 144.129"/><polygon class="cls-71" points="268.954 144.857 267.23 144.857 268.092 144.129 268.954 144.857"/><polygon class="cls-90" points="293.15 144.857 293.146 144.857 292.284 144.129 293.15 143.394 293.15 144.857"/><polygon class="cls-92" points="293.146 144.857 291.422 144.857 292.284 144.129 293.146 144.857"/><polygon class="cls-30" points="122.094 102.438 122.948 103.158 122.094 103.881 122.094 102.438"/><polygon class="cls-65" points="172.188 144.857 170.47 144.857 171.328 144.13 172.188 144.857"/><polygon class="cls-5" points="122.094 0 123.908 0 122.997 0.771 122.094 0.005 122.094 0"/><polygon class="cls-8" points="122.094 0.005 122.997 0.771 122.094 1.536 122.094 0.005"/><polygon class="cls-5" points="148.099 0 147.189 0.77 146.279 0 148.099 0"/><polygon class="cls-6" points="146.279 0 147.189 0.77 135.093 11.013 122.997 0.771 123.908 0 146.279 0"/><polygon class="cls-8" points="122.094 1.536 122.997 0.771 135.093 11.013 122.997 21.257 122.094 20.492 122.094 1.536"/><polygon class="cls-8" points="122.094 20.492 122.997 21.257 122.094 22.022 122.094 20.492"/><polygon class="cls-5" points="172.29 0 171.38 0.771 170.47 0 172.29 0"/><polygon class="cls-6" points="170.47 0 171.38 0.771 159.284 11.013 147.189 0.77 148.099 0 170.47 0"/><polygon class="cls-5" points="135.093 11.013 147.189 0.77 159.284 11.013 147.189 21.257 135.093 11.013"/><polygon class="cls-8" points="122.997 21.257 135.093 11.013 147.189 21.257 135.093 31.499 122.997 21.257"/><polygon class="cls-8" points="122.094 22.022 122.997 21.257 135.093 31.499 122.997 41.743 122.094 40.977 122.094 22.022"/><polygon class="cls-8" points="122.094 40.977 122.997 41.743 122.094 42.508 122.094 40.977"/><polygon class="cls-41" points="244.763 0 243.903 0.728 243.043 0 244.763 0"/><polygon class="cls-41" points="268.954 0 268.094 0.728 267.235 0 268.954 0"/><polygon class="cls-41" points="267.235 0 268.094 0.728 255.998 10.971 243.903 0.728 244.763 0 267.235 0"/><polygon class="cls-41" points="293.145 0 292.286 0.728 291.426 0 293.145 0"/><polygon class="cls-41" points="291.426 0 292.286 0.728 280.188 10.971 268.094 0.728 268.954 0 291.426 0"/><polygon class="cls-41" points="255.998 10.971 268.094 0.728 280.188 10.971 268.094 21.214 255.998 10.971"/><polygon class="cls-61" points="293.15 0 293.15 1.461 292.286 0.728 293.145 0 293.15 0"/><polygon class="cls-61" points="293.15 20.481 292.286 21.214 280.188 10.971 292.286 0.728 293.15 1.461 293.15 20.481"/><polygon class="cls-61" points="268.094 21.214 280.188 10.971 292.286 21.214 280.188 31.457 268.094 21.214"/><polygon class="cls-61" points="293.15 21.947 292.286 21.214 293.15 20.481 293.15 21.947"/><polygon class="cls-61" points="293.15 40.966 292.286 41.7 280.188 31.457 292.286 21.214 293.15 21.947 293.15 40.966"/><polygon class="cls-61" points="293.15 42.433 292.286 41.7 293.15 40.966 293.15 42.433"/></g></g><g id="c"><g class="cls-95"><polygon class="cls-3" points="245.674 124.417 246.203 123.887 246.731 124.417 245.674 124.417"/><polygon class="cls-4" points="246.731 124.417 246.203 123.887 253.637 116.453 261.072 123.887 260.544 124.417 246.731 124.417"/><rect class="cls-5" x="243.55857" y="89.31874" width="10.51449" height="10.51449" transform="translate(18.24262 225.48413) rotate(-44.99219)"/><rect class="cls-6" x="250.99354" y="81.88362" width="10.51499" height="10.51499" transform="translate(25.69725 228.60682) rotate(-45.0023)"/><rect class="cls-7" x="258.42872" y="74.449" width="10.51407" height="10.51407" transform="translate(33.1402 231.70038) rotate(-45.00563)"/><rect class="cls-8" x="265.86305" y="67.01376" width="10.51469" height="10.51469" transform="translate(40.54565 234.72728) rotate(-44.99323)"/><polygon class="cls-9" points="291.337 93.624 290.812 94.149 283.376 86.713 290.812 79.282 291.337 79.806 291.337 93.624"/><polygon class="cls-10" points="291.337 79.806 290.812 79.282 291.337 78.758 291.337 79.806"/><polygon class="cls-11" points="230.805 124.417 231.332 123.887 231.86 124.417 230.805 124.417"/><polygon class="cls-12" points="231.86 124.417 231.332 123.887 238.767 116.453 246.203 123.887 245.674 124.417 231.86 124.417"/><rect class="cls-13" x="228.68923" y="89.31884" width="10.51428" height="10.51428" transform="translate(13.90035 214.99827) rotate(-44.99885)"/><rect class="cls-14" x="236.1238" y="81.88387" width="10.51429" height="10.5145" transform="translate(21.34125 218.09119) rotate(-45.00218)"/><rect class="cls-15" x="243.55829" y="74.44859" width="10.5149" height="10.5149" transform="translate(28.76755 221.15301) rotate(-44.99782)"/><rect class="cls-16" x="250.99365" y="67.01371" width="10.51478" height="10.51478" transform="translate(36.20714 224.24176) rotate(-45)"/><rect class="cls-17" x="258.42935" y="59.58068" width="10.51279" height="10.51279" transform="translate(43.65518 227.34433) rotate(-45.00563)"/><rect class="cls-18" x="265.86372" y="52.14731" width="10.51335" height="10.51335" transform="translate(51.02041 230.31769) rotate(-44.97933)"/><polygon class="cls-19" points="291.337 78.758 290.812 79.282 283.376 71.847 290.812 64.412 291.337 64.937 291.337 78.758"/><polygon class="cls-20" points="291.337 64.937 290.812 64.412 291.337 63.888 291.337 64.937"/><polygon class="cls-21" points="216.992 124.417 216.463 123.887 223.898 116.453 231.332 123.887 230.805 124.417 216.992 124.417"/><rect class="cls-22" x="213.8193" y="89.319" width="10.51397" height="10.51397" transform="translate(9.5401 204.47086) rotate(-44.99552)"/><rect class="cls-23" x="221.25367" y="81.88357" width="10.5151" height="10.5151" transform="translate(16.97811 207.55942) rotate(-44.99782)"/><rect class="cls-24" x="228.68906" y="74.4488" width="10.51448" height="10.51448" transform="translate(24.42765 210.66934) rotate(-45.00563)"/><rect class="cls-25" x="236.12378" y="67.01401" width="10.51418" height="10.51418" transform="translate(31.84913 213.72208) rotate(-44.99874)"/><rect class="cls-26" x="243.55893" y="59.58026" width="10.51362" height="10.51362" transform="translate(39.28109 216.79839) rotate(-44.99782)"/><rect class="cls-27" x="250.99432" y="52.14726" width="10.51344" height="10.51345" transform="translate(46.68569 219.83349) rotate(-44.98611)"/><rect class="cls-28" x="258.42862" y="44.71272" width="10.51427" height="10.51427" transform="translate(54.1671 222.98612) rotate(-45.00494)"/><rect class="cls-29" x="265.86312" y="37.27762" width="10.51454" height="10.51454" transform="translate(61.57794 226.03134) rotate(-44.9961)"/><polygon class="cls-30" points="291.337 63.888 290.812 64.412 283.376 56.978 290.812 49.542 291.337 50.067 291.337 63.888"/><rect class="cls-31" x="198.9494" y="89.31869" width="10.51459" height="10.51459" transform="translate(5.18417 193.95308) rotate(-44.99438)"/><rect class="cls-32" x="206.38444" y="81.88387" width="10.5147" height="10.51449" transform="translate(12.63359 197.0701) rotate(-45.00448)"/><rect class="cls-33" x="213.81928" y="74.44895" width="10.51417" height="10.51417" transform="translate(20.06361 200.13717) rotate(-45.00115)"/><rect class="cls-34" x="221.25378" y="67.01366" width="10.51489" height="10.51489" transform="translate(27.48803 203.19603) rotate(-44.99552)"/><rect class="cls-35" x="228.68969" y="59.58047" width="10.5132" height="10.5132" transform="translate(34.94263 206.31329) rotate(-45.00563)"/><rect class="cls-36" x="236.12447" y="52.14762" width="10.51295" height="10.51274" transform="translate(42.33002 209.31664) rotate(-44.98484)"/><rect class="cls-37" x="243.55832" y="44.71236" width="10.51499" height="10.51499" transform="translate(49.79173 212.4418) rotate(-44.99713)"/><rect class="cls-38" x="250.99372" y="37.27757" width="10.51464" height="10.51464" transform="translate(57.24139 215.54281) rotate(-45.00287)"/><rect class="cls-39" x="258.42876" y="29.84314" width="10.51397" height="10.51397" transform="translate(64.67181 218.616) rotate(-45.00115)"/><rect class="cls-40" x="265.86297" y="22.40778" width="10.51485" height="10.51474" transform="translate(72.09517 221.68104) rotate(-44.99725)"/><rect class="cls-41" x="191.51427" y="81.88377" width="10.51469" height="10.51469" transform="translate(8.26977 186.53474) rotate(-44.99885)"/><rect class="cls-42" x="198.94927" y="74.44853" width="10.515" height="10.515" transform="translate(15.70468 189.61455) rotate(-44.99886)"/><rect class="cls-43" x="206.38467" y="67.01391" width="10.51438" height="10.51438" transform="translate(23.14714 192.70998) rotate(-45.00333)"/><rect class="cls-44" x="213.81991" y="59.58062" width="10.5129" height="10.5129" transform="translate(30.57777 195.78194) rotate(-45.00115)"/><rect class="cls-45" x="221.25445" y="52.14721" width="10.51355" height="10.51355" transform="translate(37.97085 198.79367) rotate(-44.98163)"/><rect class="cls-46" x="228.68898" y="44.71247" width="10.51478" height="10.51478" transform="translate(45.45222 201.95137) rotate(-45.00379)"/><rect class="cls-47" x="236.12398" y="37.27782" width="10.51393" height="10.51414" transform="translate(52.88523 205.02714) rotate(-45.00276)"/><rect class="cls-48" x="243.55832" y="29.84266" width="10.51486" height="10.51486" transform="translate(60.29571 208.07374) rotate(-44.99334)"/><rect class="cls-49" x="250.99362" y="22.40768" width="10.51484" height="10.51494" transform="translate(67.75803 211.18905) rotate(-45.00344)"/><rect class="cls-50" x="258.4288" y="14.97334" width="10.51391" height="10.51391" transform="translate(75.19313 214.26816) rotate(-45.00333)"/><rect class="cls-51" x="184.07984" y="74.4489" width="10.51428" height="10.51428" transform="translate(11.35739 179.11926) rotate(-45.00459)"/><rect class="cls-52" x="191.51438" y="67.01386" width="10.51448" height="10.51448" transform="translate(18.78072 182.17201) rotate(-44.99655)"/><rect class="cls-53" x="198.94991" y="59.58021" width="10.51373" height="10.51373" transform="translate(26.21842 185.25974) rotate(-44.99886)"/><rect class="cls-54" x="206.38532" y="52.14741" width="10.51294" height="10.51315" transform="translate(33.63392 188.3087) rotate(-44.98943)"/><rect class="cls-55" x="213.81905" y="44.71262" width="10.51448" height="10.51448" transform="translate(41.08923 191.42488) rotate(-45.00046)"/><rect class="cls-56" x="221.2538" y="37.27739" width="10.51485" height="10.51485" transform="translate(48.51963 194.49764) rotate(-44.99839)"/><rect class="cls-57" x="228.68913" y="29.84274" width="10.51433" height="10.51454" transform="translate(55.96098 197.58658) rotate(-45.00115)"/><rect class="cls-58" x="236.12373" y="22.40797" width="10.51429" height="10.51429" transform="translate(63.40023 200.67132) rotate(-45.00276)"/><rect class="cls-59" x="243.5584" y="14.97291" width="10.51469" height="10.51469" transform="translate(70.81358 203.72503) rotate(-44.99495)"/><rect class="cls-60" x="250.99365" y="7.53808" width="10.51478" height="10.51478" transform="translate(78.26449 206.82366) rotate(-45.00057)"/><rect class="cls-61" x="176.64471" y="67.01371" width="10.51479" height="10.51479" transform="translate(14.42913 171.66517) rotate(-44.99874)"/><polygon class="cls-40" points="291.337 49.017 290.813 49.542 283.377 42.107 290.813 34.673 291.337 35.197 291.337 49.017"/><rect class="cls-62" x="184.08047" y="59.58057" width="10.513" height="10.513" transform="translate(21.87218 174.7634) rotate(-45.00459)"/><rect class="cls-50" x="265.86353" y="7.53761" width="10.51506" height="10.51506" transform="translate(82.60589 217.32267) rotate(-44.9961)"/><polygon class="cls-50" points="291.337 34.148 290.813 34.673 283.377 27.237 290.813 19.803 291.337 20.327 291.337 34.148"/><rect class="cls-63" x="191.51505" y="52.14742" width="10.51314" height="10.51314" transform="translate(29.26883 177.77457) rotate(-44.98266)"/><rect class="cls-60" x="258.42919" y="0.10298" width="10.51414" height="10.51414" transform="translate(85.7124 209.91633) rotate(-45.00448)"/><polygon class="cls-60" points="275.943 19.803 276.47 19.275 290.284 19.275 290.813 19.803 283.377 27.237 275.943 19.803"/><rect class="cls-64" x="198.94915" y="44.71231" width="10.5151" height="10.5151" transform="translate(36.73177 180.90683) rotate(-44.99932)"/><polygon class="cls-65" points="261.072 19.803 261.601 19.275 275.415 19.275 275.943 19.803 268.508 27.237 261.072 19.803"/><rect class="cls-66" x="206.38462" y="37.27782" width="10.51434" height="10.51413" transform="translate(44.17862 184.00457) rotate(-45.00505)"/><rect class="cls-67" x="213.81925" y="29.843" width="10.51423" height="10.51402" transform="translate(51.59791 187.06129) rotate(-44.99782)"/><rect class="cls-68" x="221.25378" y="22.40759" width="10.51489" height="10.51489" transform="translate(59.03386 190.14268) rotate(-44.99839)"/><rect class="cls-69" x="228.68916" y="14.97312" width="10.51427" height="10.51427" transform="translate(66.47994 193.23616) rotate(-45.00276)"/><rect class="cls-70" x="236.12378" y="7.53838" width="10.51418" height="10.51418" transform="translate(73.90545 196.30479) rotate(-44.99931)"/><rect class="cls-71" x="243.55832" y="0.10314" width="10.51486" height="10.51486" transform="translate(81.33401 199.37793) rotate(-44.99725)"/><polygon class="cls-72" points="186.191 79.814 186.723 79.282 194.159 86.713 186.723 94.149 186.191 93.616 186.191 79.814"/><rect class="cls-73" x="176.64538" y="52.14726" width="10.51346" height="10.51346" transform="translate(24.9202 167.26988) rotate(-44.98484)"/><polygon class="cls-40" points="291.337 35.197 290.813 34.673 291.337 34.148 291.337 35.197"/><polygon class="cls-50" points="291.337 20.327 290.813 19.803 291.337 19.278 291.337 20.327"/><polygon class="cls-60" points="291.337 19.278 290.813 19.803 290.284 19.275 291.337 19.275 291.337 19.278"/><polygon class="cls-65" points="275.415 19.275 276.47 19.275 275.943 19.803 275.415 19.275"/><rect class="cls-74" x="184.07974" y="44.71262" width="10.51448" height="10.51448" transform="translate(32.38454 170.40602) rotate(-45.0039)"/><rect class="cls-75" x="191.51445" y="37.27772" width="10.51433" height="10.51433" transform="translate(39.8116 173.47221) rotate(-44.99942)"/><rect class="cls-76" x="198.94929" y="29.84261" width="10.51496" height="10.51496" transform="translate(47.23588 176.53717) rotate(-44.99438)"/><rect class="cls-77" x="206.38462" y="22.40787" width="10.51449" height="10.51449" transform="translate(54.6993 179.65522) rotate(-45.00735)"/><rect class="cls-68" x="213.81938" y="14.97327" width="10.51396" height="10.51396" transform="translate(62.11314 182.7078) rotate(-44.99828)"/><rect class="cls-78" x="221.25378" y="7.53803" width="10.51489" height="10.51489" transform="translate(69.54188 185.781) rotate(-44.9961)"/><rect class="cls-79" x="228.68908" y="0.10335" width="10.51444" height="10.51444" transform="translate(77.00138 188.8872) rotate(-45.00505)"/><polygon class="cls-80" points="246.203 19.803 246.731 19.275 260.544 19.275 261.072 19.803 253.637 27.238 246.203 19.803"/><polygon class="cls-81" points="186.191 78.75 186.723 79.282 186.191 79.814 186.191 78.75"/><polygon class="cls-82" points="186.191 64.944 186.723 64.412 194.159 71.847 186.723 79.282 186.191 78.75 186.191 64.944"/><rect class="cls-83" x="176.64479" y="37.27757" width="10.51465" height="10.51465" transform="translate(35.46029 162.96405) rotate(-45.00161)"/><rect class="cls-84" x="184.07989" y="29.84304" width="10.51418" height="10.51418" transform="translate(42.89253 166.03956) rotate(-45.00012)"/><rect class="cls-85" x="191.5143" y="22.40788" width="10.51464" height="10.51453" transform="translate(50.32838 169.12025) rotate(-45.00057)"/><rect class="cls-86" x="198.94938" y="14.97286" width="10.51479" height="10.51479" transform="translate(57.75306 172.18738) rotate(-44.99599)"/><rect class="cls-87" x="206.38467" y="7.53828" width="10.51438" height="10.51438" transform="translate(65.20662 175.28911) rotate(-45.0039)"/><rect class="cls-79" x="213.8193" y="0.1035" width="10.51413" height="10.51413" transform="translate(72.63334 178.35924) rotate(-45.00057)"/><polygon class="cls-80" points="231.332 19.803 231.86 19.275 245.674 19.275 246.203 19.803 238.767 27.238 231.332 19.803"/><polygon class="cls-80" points="245.674 19.275 246.731 19.275 246.203 19.803 245.674 19.275"/><polygon class="cls-88" points="186.191 63.88 186.723 64.412 186.191 64.944 186.191 63.88"/><polygon class="cls-89" points="186.191 50.075 186.723 49.542 194.159 56.978 186.723 64.412 186.191 63.88 186.191 50.075"/><rect class="cls-90" x="176.64469" y="22.40767" width="10.51485" height="10.51495" transform="translate(45.97617 158.60999) rotate(-45.00218)"/><rect class="cls-91" x="184.07992" y="14.97323" width="10.51412" height="10.51412" transform="translate(53.41167 161.68991) rotate(-45.0023)"/><rect class="cls-92" x="191.51438" y="7.53823" width="10.51448" height="10.51448" transform="translate(60.83512 164.75601) rotate(-44.99713)"/><rect class="cls-70" x="198.94929" y="0.10309" width="10.51496" height="10.51496" transform="translate(68.27241 167.83883) rotate(-44.99828)"/><polygon class="cls-93" points="216.463 19.803 216.992 19.275 230.805 19.275 231.332 19.803 223.899 27.238 216.463 19.803"/><polygon class="cls-93" points="230.805 19.275 231.86 19.275 231.332 19.803 230.805 19.275"/><polygon class="cls-90" points="186.191 49.01 186.724 49.543 186.191 50.076 186.191 49.01"/><polygon class="cls-90" points="186.191 35.207 186.724 34.674 194.159 42.108 186.724 49.543 186.191 49.01 186.191 35.207"/><rect class="cls-90" x="176.64537" y="7.53913" width="10.51463" height="10.51463" transform="translate(56.47277 154.23464) rotate(-44.99369)"/><rect class="cls-92" x="184.08042" y="0.10409" width="10.51485" height="10.51485" transform="translate(63.92877 157.3379) rotate(-45.00345)"/><polygon class="cls-71" points="201.595 19.804 202.124 19.275 215.934 19.275 216.463 19.804 209.029 27.239 201.595 19.804"/><polygon class="cls-93" points="215.934 19.275 216.994 19.275 216.463 19.804 215.934 19.275"/><polygon class="cls-90" points="186.191 34.14 186.724 34.674 186.191 35.207 186.191 34.14"/><polygon class="cls-90" points="186.191 20.337 186.724 19.804 194.159 27.239 186.724 34.674 186.191 34.14 186.191 20.337"/><polygon class="cls-92" points="186.724 19.804 187.253 19.275 201.065 19.275 201.595 19.804 194.159 27.239 186.724 19.804"/><polygon class="cls-71" points="201.065 19.275 202.124 19.275 201.595 19.804 201.065 19.275"/><polygon class="cls-90" points="186.191 19.275 186.195 19.275 186.724 19.804 186.191 20.337 186.191 19.275"/><polygon class="cls-92" points="186.195 19.275 187.253 19.275 186.724 19.804 186.195 19.275"/><polygon class="cls-30" points="291.337 50.066 290.813 49.542 291.337 49.017 291.337 50.066"/><polygon class="cls-65" points="260.545 19.275 261.601 19.275 261.072 19.803 260.545 19.275"/><polygon class="cls-5" points="291.337 124.417 290.222 124.417 290.781 123.858 291.337 124.412 291.337 124.417"/><polygon class="cls-8" points="291.337 124.412 290.781 123.858 291.337 123.301 291.337 124.412"/><polygon class="cls-5" points="275.352 124.417 275.911 123.858 276.469 124.417 275.352 124.417"/><polygon class="cls-6" points="276.469 124.417 275.911 123.858 283.347 116.422 290.781 123.858 290.222 124.417 276.469 124.417"/><polygon class="cls-8" points="291.337 123.301 290.781 123.858 283.347 116.422 290.781 108.988 291.337 109.542 291.337 123.301"/><polygon class="cls-8" points="291.337 109.542 290.781 108.988 291.337 108.432 291.337 109.542"/><polygon class="cls-5" points="260.483 124.417 261.042 123.858 261.601 124.417 260.483 124.417"/><polygon class="cls-6" points="261.601 124.417 261.042 123.858 268.476 116.422 275.911 123.858 275.352 124.417 261.601 124.417"/><rect class="cls-5" x="258.39736" y="89.28766" width="10.51511" height="10.51511" transform="translate(22.62336 235.99646) rotate(-44.99897)"/><rect class="cls-8" x="265.83308" y="81.85336" width="10.51427" height="10.51427" transform="translate(30.06301 239.08608) rotate(-45.00115)"/><polygon class="cls-8" points="291.337 108.432 290.781 108.988 283.347 101.554 290.781 94.117 291.337 94.674 291.337 108.432"/><polygon class="cls-8" points="291.337 94.674 290.781 94.117 291.337 93.563 291.337 94.674"/><polygon class="cls-41" points="215.934 124.417 216.463 123.887 216.992 124.417 215.934 124.417"/><polygon class="cls-41" points="201.065 124.417 201.594 123.887 202.121 124.417 201.065 124.417"/><polygon class="cls-41" points="202.121 124.417 201.594 123.887 209.028 116.453 216.463 123.887 215.934 124.417 202.121 124.417"/><polygon class="cls-41" points="186.195 124.417 186.723 123.887 187.252 124.417 186.195 124.417"/><polygon class="cls-41" points="187.252 124.417 186.723 123.887 194.159 116.453 201.594 123.887 201.065 124.417 187.252 124.417"/><rect class="cls-41" x="184.08012" y="89.319" width="10.51397" height="10.51397" transform="translate(0.83657 183.45942) rotate(-45)"/><polygon class="cls-61" points="186.191 124.417 186.191 123.355 186.723 123.887 186.195 124.417 186.191 124.417"/><polygon class="cls-61" points="186.191 109.55 186.723 109.018 194.159 116.453 186.723 123.887 186.191 123.355 186.191 109.55"/><rect class="cls-61" x="176.64463" y="81.88357" width="10.5151" height="10.5151" transform="translate(3.91617 176.0245) rotate(-45)"/><polygon class="cls-61" points="186.191 108.486 186.723 109.018 186.191 109.55 186.191 108.486"/><polygon class="cls-61" points="186.191 94.682 186.723 94.149 194.159 101.583 186.723 109.018 186.191 108.486 186.191 94.682"/><polygon class="cls-61" points="186.191 93.616 186.723 94.149 186.191 94.682 186.191 93.616"/></g></g><path d="M3,114.53925h.67456v24.08313H3Z" transform="translate(12.25633 21.8772)"/><path d="M9.07123,121.35267h.67455v3.30559h.06753c1.07935-2.42858,3.30548-3.84533,7.01576-3.84533,2.86709,0,5.46431,1.18059,6.2738,4.04756h.06741a6.49681,6.49681,0,0,1,6.2738-4.04756c6.61108,0,7.75784,3.64287,7.75784,6.94847v10.861h-.67455v-10.861c0-2.90091-.877-6.27391-7.08329-6.27391a5.64995,5.64995,0,0,0-5.97023,6.004v11.13085H22.7993V127.49153c0-4.38484-2.63093-6.004-5.97023-6.004-4.41854,0-7.08329,2.29376-7.08329,6.47614v10.65875H9.07123Z" transform="translate(12.25633 21.8772)"/><path d="M42.59906,121.35267h.67455v4.6547h.06753c1.2817-3.40671,4.28372-5.19444,8.23-5.19444,6.2401,0,9.006,4.31743,9.006,9.17459s-2.76586,9.1746-9.006,9.1746c-3.44041,0-6.81342-1.34934-8.23-5.22815h-.06753V145.4358h-.67455Zm8.97213,17.13489c5.90271,0,8.33129-4.08149,8.33129-8.5s-2.42858-8.5-8.33129-8.5c-5.869,0-8.29758,4.08149-8.29758,8.5S45.7022,138.48756,51.57119,138.48756Z" transform="translate(12.25633 21.8772)"/><path d="M64.92875,121.35267h.67455v4.6547h.06752a7.13258,7.13258,0,0,1,7.117-5.19444,13.13722,13.13722,0,0,1,1.45034.10134v.67456a12.19671,12.19671,0,0,0-1.484-.10134c-3.94644,0-7.15081,2.93461-7.15081,8.60115v8.53374h-.67455Z" transform="translate(12.25633 21.8772)"/><path d="M79.413,136.129c3.21988,3.21988,8.15694,3.86393,12.25928-.23841,4.24543-4.24542,2.8144-8.01386,1.69344-9.99345l.477-.477c1.33545,2.09875,2.90973,6.34426-1.69343,10.94741-4.15,4.15-9.49264,3.95919-13.21333.23849s-3.91152-9.06331.23849-13.21332c3.55378-3.55378,8.89633-4.12618,12.99867-.02384Zm11.806-12.76a8.15957,8.15957,0,0,0-11.56764.50073c-3.93535,3.93535-3.506,8.56242-.71539,11.7823Z" transform="translate(12.25633 21.8772)"/><path d="M98.119,133.22548c.33728,3.27189,1.51787,5.26208,7.69044,5.26208,4.48607,0,7.08329-1.28193,7.08329-4.25,0-2.631-1.41675-3.44041-4.9921-3.879l-5.22815-.64085c-2.83327-.33728-4.621-1.55157-4.621-4.28373,0-2.867,2.0576-4.621,7.52179-4.621,4.621,0,7.08329,1.248,7.25193,5.59913h-.67455c-.16864-3.91251-2.36118-4.92457-6.77972-4.92457-4.9921,0-6.64478,1.6192-6.64478,3.94644,0,2.15872,1.248,3.23819,4.08126,3.60917l5.22815.64085c4.14879.506,5.53172,1.72033,5.53172,4.5873,0,2.125-1.07935,4.89087-7.75784,4.89087-7.117,0-8.02771-2.76586-8.36511-5.93664Z" transform="translate(12.25633 21.8772)"/><path d="M117.48032,114.53925h.67456v3.67657h-.67456Zm0,6.81342h.67456v17.26971h-.67456Z" transform="translate(12.25633 21.8772)"/><path d="M132.01777,120.81293c5.869,0,9.512,3.91274,9.512,9.17459s-3.643,9.1746-9.512,9.1746-9.51188-3.91274-9.51188-9.1746S126.14877,120.81293,132.01777,120.81293Zm0,17.67463c5.80159,0,8.83743-3.94644,8.83743-8.5s-3.03584-8.5-8.83743-8.5-8.8372,3.94644-8.8372,8.5S126.21618,138.48756,132.01777,138.48756Zm3.3393-24.42064h1.07936l-5.66666,4.68864h-.94442Z" transform="translate(12.25633 21.8772)"/><path d="M145.88135,121.35267h.67456v3.879h.0674c1.34935-3.06943,4.01386-4.41877,7.79178-4.41877,6.611,0,7.75785,3.64287,7.75785,6.94847v10.861h-.67456v-10.861c0-2.90091-.877-6.27391-7.08329-6.27391-7.18463,0-7.85918,5.22814-7.85918,7.4545v9.68039h-.67456Z" transform="translate(12.25633 21.8772)"/><path d="M180.18462,114.53925h11.738c6.64489,0,10.0516,4.85716,10.0516,12.04156s-3.40671,12.04157-10.0516,12.04157h-11.738Zm.67455,23.40858h11.06345c6.91476,0,9.37682-5.53172,9.37682-11.367s-2.46206-11.367-9.37682-11.367H180.85917Z" transform="translate(12.25633 21.8772)"/><path d="M206.86556,114.53925h.67455v3.67657h-.67455Zm0,6.81342h.67455v17.26971h-.67455Z" transform="translate(12.25633 21.8772)"/><path d="M229.80181,121.35267h.67456v16.73c0,5.56542-3.40671,7.9603-8.871,7.9603-3.71029,0-8.23018-.64085-8.80339-5.80159h.67456c.43839,2.69845,1.7538,5.127,8.02771,5.127,5.16074,0,8.29758-2.05761,8.29758-7.31946v-4.621h-.06764c-1.58527,3.54176-4.68841,4.85717-8.4661,4.85717-5.59913,0-9.2083-3.17055-9.2083-8.736s3.60917-8.7362,9.2083-8.7362c4.55359,0,7.38686,1.92255,8.4661,4.92457h.06764Zm-8.53374,16.25788c5.3969,0,8.53374-3.002,8.53374-8.06142,0-5.32949-3.27189-8.06164-8.53374-8.06164-5.22815,0-8.53375,2.79979-8.53375,8.06164S216.03992,137.61055,221.26807,137.61055Z" transform="translate(12.25633 21.8772)"/><path d="M235.87327,114.53925h.67455v3.67657h-.67455Zm0,6.81342h.67455v17.26971h-.67455Z" transform="translate(12.25633 21.8772)"/><path d="M244.238,122.02722h-4.115v-.67455h4.115v-5.93641h.67478v5.93641h5.02569v.67455h-5.02569v13.39091c0,2.09108.67456,2.73193,3.06944,2.73193.70826,0,1.619-.10112,2.42835-.16853v.67456a23.25684,23.25684,0,0,1-2.42835.16875c-3.03573,0-3.74422-1.11318-3.74422-3.44041Z" transform="translate(12.25633 21.8772)"/><path d="M271.52542,138.38622a5.234,5.234,0,0,1-1.58528.23616c-1.14688,0-1.82143-.47232-1.82143-1.72032v-2.05737h-.06741c-1.11318,2.29353-3.60917,4.31743-8.63486,4.31743-4.1152,0-6.84713-1.754-6.84713-5.22815,0-2.93461,1.99-4.72235,5.63284-4.85716l5.70024-.20246c3.64288-.13482,4.21632-.5058,4.21632-2.59711v-.94442c0-2.79957-2.46229-3.84533-7.1507-3.84533-4.95828,0-6.6786,1.41675-6.94847,5.09332H253.345c.23617-4.621,3.23819-5.76788,7.623-5.76788,5.46431,0,7.82525,1.45046,7.82525,4.48618v11.19826c0,1.01184.20246,1.45046,1.14688,1.45046a6.68984,6.68984,0,0,0,1.58528-.23617Zm-3.40671-9.88285h-.06741c-.371.64085-1.99019.94442-4.51989,1.04576l-5.26185.20223c-3.57524.13505-5.02569,1.82144-5.02569,4.21632,0,3.10313,2.69845,4.51988,6.20627,4.51988,5.90271,0,8.66857-3.10313,8.66857-6.77971Z" transform="translate(12.25633 21.8772)"/><path d="M274.32544,114.53925H275v24.08313h-.67456Z" transform="translate(12.25633 21.8772)"/><path d="M3,114.53925h.67456v24.08313H3Z" transform="translate(12.25633 21.8772)"/><path d="M9.07123,121.35267h.67455v3.30559h.06753c1.07935-2.42858,3.30548-3.84533,7.01576-3.84533,2.86709,0,5.46431,1.18059,6.2738,4.04756h.06741a6.49681,6.49681,0,0,1,6.2738-4.04756c6.61108,0,7.75784,3.64287,7.75784,6.94847v10.861h-.67455v-10.861c0-2.90091-.877-6.27391-7.08329-6.27391a5.64995,5.64995,0,0,0-5.97023,6.004v11.13085H22.7993V127.49153c0-4.38484-2.63093-6.004-5.97023-6.004-4.41854,0-7.08329,2.29376-7.08329,6.47614v10.65875H9.07123Z" transform="translate(12.25633 21.8772)"/><path d="M42.59906,121.35267h.67455v4.6547h.06753c1.2817-3.40671,4.28372-5.19444,8.23-5.19444,6.2401,0,9.006,4.31743,9.006,9.17459s-2.76586,9.1746-9.006,9.1746c-3.44041,0-6.81342-1.34934-8.23-5.22815h-.06753V145.4358h-.67455Zm8.97213,17.13489c5.90271,0,8.33129-4.08149,8.33129-8.5s-2.42858-8.5-8.33129-8.5c-5.869,0-8.29758,4.08149-8.29758,8.5S45.7022,138.48756,51.57119,138.48756Z" transform="translate(12.25633 21.8772)"/><path d="M64.92875,121.35267h.67455v4.6547h.06752a7.13258,7.13258,0,0,1,7.117-5.19444,13.13722,13.13722,0,0,1,1.45034.10134v.67456a12.19671,12.19671,0,0,0-1.484-.10134c-3.94644,0-7.15081,2.93461-7.15081,8.60115v8.53374h-.67455Z" transform="translate(12.25633 21.8772)"/><path d="M79.413,136.129c3.21988,3.21988,8.15694,3.86393,12.25928-.23841,4.24543-4.24542,2.8144-8.01386,1.69344-9.99345l.477-.477c1.33545,2.09875,2.90973,6.34426-1.69343,10.94741-4.15,4.15-9.49264,3.95919-13.21333.23849s-3.91152-9.06331.23849-13.21332c3.55378-3.55378,8.89633-4.12618,12.99867-.02384Zm11.806-12.76a8.15957,8.15957,0,0,0-11.56764.50073c-3.93535,3.93535-3.506,8.56242-.71539,11.7823Z" transform="translate(12.25633 21.8772)"/><path d="M98.119,133.22548c.33728,3.27189,1.51787,5.26208,7.69044,5.26208,4.48607,0,7.08329-1.28193,7.08329-4.25,0-2.631-1.41675-3.44041-4.9921-3.879l-5.22815-.64085c-2.83327-.33728-4.621-1.55157-4.621-4.28373,0-2.867,2.0576-4.621,7.52179-4.621,4.621,0,7.08329,1.248,7.25193,5.59913h-.67455c-.16864-3.91251-2.36118-4.92457-6.77972-4.92457-4.9921,0-6.64478,1.6192-6.64478,3.94644,0,2.15872,1.248,3.23819,4.08126,3.60917l5.22815.64085c4.14879.506,5.53172,1.72033,5.53172,4.5873,0,2.125-1.07935,4.89087-7.75784,4.89087-7.117,0-8.02771-2.76586-8.36511-5.93664Z" transform="translate(12.25633 21.8772)"/><path d="M117.48032,114.53925h.67456v3.67657h-.67456Zm0,6.81342h.67456v17.26971h-.67456Z" transform="translate(12.25633 21.8772)"/><path d="M132.01777,120.81293c5.869,0,9.512,3.91274,9.512,9.17459s-3.643,9.1746-9.512,9.1746-9.51188-3.91274-9.51188-9.1746S126.14877,120.81293,132.01777,120.81293Zm0,17.67463c5.80159,0,8.83743-3.94644,8.83743-8.5s-3.03584-8.5-8.83743-8.5-8.8372,3.94644-8.8372,8.5S126.21618,138.48756,132.01777,138.48756Zm3.3393-24.42064h1.07936l-5.66666,4.68864h-.94442Z" transform="translate(12.25633 21.8772)"/><path d="M145.88135,121.35267h.67456v3.879h.0674c1.34935-3.06943,4.01386-4.41877,7.79178-4.41877,6.611,0,7.75785,3.64287,7.75785,6.94847v10.861h-.67456v-10.861c0-2.90091-.877-6.27391-7.08329-6.27391-7.18463,0-7.85918,5.22814-7.85918,7.4545v9.68039h-.67456Z" transform="translate(12.25633 21.8772)"/><path d="M180.18462,114.53925h11.738c6.64489,0,10.0516,4.85716,10.0516,12.04156s-3.40671,12.04157-10.0516,12.04157h-11.738Zm.67455,23.40858h11.06345c6.91476,0,9.37682-5.53172,9.37682-11.367s-2.46206-11.367-9.37682-11.367H180.85917Z" transform="translate(12.25633 21.8772)"/><path d="M206.86556,114.53925h.67455v3.67657h-.67455Zm0,6.81342h.67455v17.26971h-.67455Z" transform="translate(12.25633 21.8772)"/><path d="M229.80181,121.35267h.67456v16.73c0,5.56542-3.40671,7.9603-8.871,7.9603-3.71029,0-8.23018-.64085-8.80339-5.80159h.67456c.43839,2.69845,1.7538,5.127,8.02771,5.127,5.16074,0,8.29758-2.05761,8.29758-7.31946v-4.621h-.06764c-1.58527,3.54176-4.68841,4.85717-8.4661,4.85717-5.59913,0-9.2083-3.17055-9.2083-8.736s3.60917-8.7362,9.2083-8.7362c4.55359,0,7.38686,1.92255,8.4661,4.92457h.06764Zm-8.53374,16.25788c5.3969,0,8.53374-3.002,8.53374-8.06142,0-5.32949-3.27189-8.06164-8.53374-8.06164-5.22815,0-8.53375,2.79979-8.53375,8.06164S216.03992,137.61055,221.26807,137.61055Z" transform="translate(12.25633 21.8772)"/><path d="M235.87327,114.53925h.67455v3.67657h-.67455Zm0,6.81342h.67455v17.26971h-.67455Z" transform="translate(12.25633 21.8772)"/><path d="M244.238,122.02722h-4.115v-.67455h4.115v-5.93641h.67478v5.93641h5.02569v.67455h-5.02569v13.39091c0,2.09108.67456,2.73193,3.06944,2.73193.70826,0,1.619-.10112,2.42835-.16853v.67456a23.25684,23.25684,0,0,1-2.42835.16875c-3.03573,0-3.74422-1.11318-3.74422-3.44041Z" transform="translate(12.25633 21.8772)"/><path d="M271.52542,138.38622a5.234,5.234,0,0,1-1.58528.23616c-1.14688,0-1.82143-.47232-1.82143-1.72032v-2.05737h-.06741c-1.11318,2.29353-3.60917,4.31743-8.63486,4.31743-4.1152,0-6.84713-1.754-6.84713-5.22815,0-2.93461,1.99-4.72235,5.63284-4.85716l5.70024-.20246c3.64288-.13482,4.21632-.5058,4.21632-2.59711v-.94442c0-2.79957-2.46229-3.84533-7.1507-3.84533-4.95828,0-6.6786,1.41675-6.94847,5.09332H253.345c.23617-4.621,3.23819-5.76788,7.623-5.76788,5.46431,0,7.82525,1.45046,7.82525,4.48618v11.19826c0,1.01184.20246,1.45046,1.14688,1.45046a6.68984,6.68984,0,0,0,1.58528-.23617Zm-3.40671-9.88285h-.06741c-.371.64085-1.99019.94442-4.51989,1.04576l-5.26185.20223c-3.57524.13505-5.02569,1.82144-5.02569,4.21632,0,3.10313,2.69845,4.51988,6.20627,4.51988,5.90271,0,8.66857-3.10313,8.66857-6.77971Z" transform="translate(12.25633 21.8772)"/><path d="M274.32544,114.53925H275v24.08313h-.67456Z" transform="translate(12.25633 21.8772)"/></svg>